# xmcd
#
# Track frame offsets:
#	150
#	20631
#	40513
#	57549
#	73912
#	97549
#	115622
#	129140
#	151787
#	167861
#	183294
#	201002
#	217967
#	234982
#	255200
#	267973
#	286760
#	301116
#
# Disc length: 4245 seconds
#
# Revision: 0
# Processed by: cddbd v1.5.2PL0 Copyright (c) Steve Scherf et al.
# Submitted via: EasyCDDAExtractor 16.0.6.1
#
DISCID=de109312
DTITLE=Συλλογικός δίσκος - Εντέχνως Ελληνικά 5
DYEAR=2011
DGENRE=Έντεχνη
TTITLE0=Θηβαίος Χρήστος - Μαύρο μαργαριτάρι [Fabrizio De Andre-I. Fossati,απ.Χ
TTITLE0=Θηβαίος]
TTITLE1=Τσανακλίδου Τάνια - Γράμμα στον κύριο Γκάτσο [Γιώργος Ανδρέου]
TTITLE2=Στόκας Μπάμπης - Πριγκηπέσσα [Σωκράτης Μάλαμας]
TTITLE3=Φαραντούρη Μαρία - Θεσσαλονίκη [Θ. Μικρούτσικος-Ν. Καββαδίας]
TTITLE4=Συνήθεις Ύποπτοι - Βροχή μου [Χρήστος Θηβαίος]
TTITLE5=Αρβανιτάκη Ελευθερία - Νείλος [Ν. Ξυδάκης-Εμμ. Ζάχος]
TTITLE6=Περίδης Ορφέας - Κυψέλη [Ορφέας Περίδης]
TTITLE7=Βιτάλη Ελένη - Ένα χειμωνιάτικο πρωΐ [Ελένη Βιτάλη]
TTITLE8=Νέγκα Γιώτα - Έχω άνθρωπο [Κ. Λειβαδάς-Θ. Γκόνης]
TTITLE9=Ανδρεάτος Γεράσιμος - Των παπουτσιών η σκκόνη [Π. Ταμπουρής-Θ. Γκόνης]
TTITLE10=Λεονάρδου Σωτηρία - Αγρύπνια [Θανάσης Παπακωνσταντίνου]
TTITLE11=Κατσιμίχας Χάρης-Apurimac - Το λουλούδι του δάσους [ινδιάν., απ. Χ. Κ
TTITLE11=ατσιμίχας]
TTITLE12=Ξυδούς Μάνος - Βράδιασε, τα ξαναλέμε [Μάνος Ξυδούς]
TTITLE13=Δημητριάδης Γιώργος-Μικροί Ήρωες - Φύγαν οι ρεμπέτες [Βασίλης Πετρίδη
TTITLE13=ς]
TTITLE14=Χειμερινοί Κολυμβητές - Το αίμα του ροδιού [Ευάγγελος-Ζ. Παπαζαχαρίου
TTITLE14=, διασκ. ερμ.]
TTITLE15=Καζούλλης Βασίλης - Πώς ερωτεύεται [Βασίλης Καζούλλης]
TTITLE16=Μαρκέλλου Μάρω - Scrooge McDuck [Μάρω Μαρκέλλου]
TTITLE17=Τρίφωνο - Χαράματα η ώρα τρείς [Μάρκος Βαμβακάρης]
EXTD=
EXTT0=
EXTT1=
EXTT2=
EXTT3=
EXTT4=
EXTT5=
EXTT6=
EXTT7=
EXTT8=
EXTT9=
EXTT10=
EXTT11=
EXTT12=
EXTT13=
EXTT14=
EXTT15=
EXTT16=
EXTT17=
PLAYORDER=
